<svg width="26" height="16" viewBox="0 0 26 16" fill="none" xmlns="http://www.w3.org/2000/svg">
<path d="M8.61264 0H3.08755C2.76254 0 2.43754 0.325005 2.27504 0.65001L0 14.9502C0 15.2752 0.162504 15.4377 0.48751 15.4377H3.08755C3.41255 15.4377 3.73756 15.1127 3.90006 14.7877L4.55007 10.8877C4.55007 10.5627 4.87508 10.2377 5.36259 10.2377H7.15011C10.8877 10.2377 13.0002 8.45013 13.4877 4.87508C13.8127 3.41255 13.4877 2.11254 12.8377 1.30002C11.8627 0.48751 10.5627 0 8.61264 0ZM9.26265 5.36259C8.93764 7.31262 7.47512 7.31262 6.0126 7.31262H5.20008L5.85009 3.57506C5.85009 3.41255 6.01259 3.25005 6.3376 3.25005H6.66261C7.63762 3.25005 8.61264 3.25005 9.10014 3.90006C9.26265 4.06256 9.42515 4.55007 9.26265 5.36259Z" fill="#263B80"/>
<path d="M25.3502 5.20007H22.7502C22.5877 5.20007 22.2627 5.36257 22.2627 5.52507L22.1002 6.33758L21.9377 6.01258C21.2876 5.20007 20.1501 4.87506 18.8501 4.87506C15.9251 4.87506 13.325 7.1501 12.8375 10.2376C12.5125 11.8627 13 13.3252 13.8125 14.3002C14.625 15.2752 15.7626 15.6002 17.2251 15.6002C19.6626 15.6002 20.9626 14.1377 20.9626 14.1377L20.8001 14.9502C20.8001 15.2752 20.9626 15.4377 21.2876 15.4377H23.7252C24.0502 15.4377 24.3752 15.1127 24.5377 14.7877L26.0002 5.68757C25.8377 5.52507 25.5127 5.20007 25.3502 5.20007ZM21.6126 10.4001C21.2876 11.8627 20.1501 13.0002 18.5251 13.0002C17.7126 13.0002 17.0626 12.6752 16.7376 12.3502C16.4126 11.8627 16.2501 11.2127 16.2501 10.4001C16.4126 8.93763 17.7126 7.80011 19.1751 7.80011C19.9876 7.80011 20.4751 8.12511 20.9626 8.45012C21.4501 8.93762 21.6126 9.75014 21.6126 10.4001Z" fill="#263B80"/>
</svg>
