<svg width="22" height="22" viewBox="0 0 22 22" fill="none" xmlns="http://www.w3.org/2000/svg">
<path d="M3.21768 9.64906C3.06989 9.4987 2.98707 9.2963 2.98707 9.08546C2.98707 8.87462 3.06989 8.67222 3.21768 8.52186L3.21793 8.52161L9.24893 2.42961L9.25815 2.4203L9.25867 2.42098C10.632 1.35461 12.0229 0.835563 13.4151 0.906089L13.4151 0.906092C15.1571 0.995425 16.5151 1.66056 17.6647 2.74832L17.6647 2.74833C18.8404 3.8609 19.6 5.44803 19.6 7.36796C19.6 8.84129 19.1711 10.1413 18.2656 11.2937L18.2591 11.302L18.2588 11.3016L9.75576 20.0616L9.74781 20.0698L9.7474 20.0693C8.87042 20.7882 7.8909 21.139 6.84 21.0969L6.83985 21.0969C5.51866 21.042 4.52684 20.614 3.78769 19.8831C2.92876 19.0353 2.4 17.9894 2.4 16.587C2.4 15.4694 2.78663 14.4394 3.57776 13.4774L3.58329 13.4707L3.58356 13.471L11.0668 5.83076C11.6736 5.18367 12.2794 4.786 12.9106 4.68915C13.3272 4.62358 13.7534 4.66085 14.1522 4.79771C14.5511 4.9346 14.9104 5.16696 15.1989 5.47455C15.7518 6.05979 15.9882 6.79088 15.9055 7.61692L15.9055 7.617C15.8482 8.18474 15.6156 8.70539 15.1941 9.19983L15.1897 9.20497L15.1896 9.20481L8.30973 16.2526C8.3097 16.2527 8.30967 16.2527 8.30964 16.2527C8.23725 16.3272 8.15075 16.3866 8.05518 16.4274C7.95957 16.4681 7.85681 16.4895 7.75287 16.4901C7.64894 16.4907 7.54592 16.4707 7.44982 16.4311C7.35371 16.3915 7.26646 16.3332 7.19313 16.2595L7.19311 16.2595C7.0444 16.11 6.96035 15.9081 6.95907 15.6973C6.95778 15.4865 7.03937 15.2836 7.18626 15.1323L7.18645 15.1321L14.031 8.12257C14.2185 7.90142 14.3129 7.68385 14.3355 7.45609L14.3355 7.45601C14.3729 7.082 14.2845 6.8166 14.0574 6.57671L14.0569 6.57621C13.9424 6.45356 13.7994 6.36111 13.6405 6.3071C13.4816 6.25309 13.3119 6.23918 13.1463 6.26662L13.1451 6.26683C13.0443 6.28216 12.913 6.33777 12.7518 6.44892C12.5915 6.55937 12.4071 6.72091 12.2009 6.94043L12.1994 6.94196L12.1994 6.94195L4.74955 14.5458C4.22753 15.1838 3.978 15.8557 3.978 16.588C3.978 17.5123 4.31012 18.1704 4.89023 18.7428L4.89034 18.7429C5.34405 19.1918 5.96346 19.4648 6.90397 19.504C7.55576 19.5299 8.16075 19.3156 8.69043 18.888L17.0795 10.2462C17.7074 9.43914 18.022 8.48961 18.022 7.36896C18.022 5.91469 17.4565 4.73886 16.5852 3.91356C15.6908 3.06634 14.6729 2.56949 13.3359 2.50083L13.3358 2.50083C12.3601 2.45049 11.3278 2.82866 10.2903 3.62216L4.33514 9.65024L4.164 9.82348V9.78099C4.13677 9.7965 4.10857 9.81039 4.07956 9.82257C3.9836 9.86285 3.88057 9.8836 3.7765 9.8836C3.67243 9.8836 3.5694 9.86285 3.47344 9.82257C3.37751 9.7823 3.29056 9.72332 3.21768 9.64906ZM3.21768 9.64906C3.21766 9.64904 3.21764 9.64902 3.21762 9.649L3.289 9.57896L3.21768 9.64906Z" fill="#CDCFCE" stroke="#CDCFCE" stroke-width="0.2"/>
</svg>
