<svg width="18" height="18" viewBox="0 0 18 18" fill="none" xmlns="http://www.w3.org/2000/svg">
<path fill-rule="evenodd" clip-rule="evenodd" d="M18 7.75706C18 7.59134 18 2.9275 18 2.77598C17.6638 -1.03085 12.0853 -0.874602 11.9812 2.95117C11.9812 4.29114 11.9433 7.2741 11.9385 8.59513C11.9379 9.02497 11.8525 9.45046 11.6871 9.84722C11.5217 10.244 11.2797 10.6042 10.9748 10.9073C10.67 11.2103 10.3083 11.4503 9.91051 11.6133C9.51274 11.7764 9.08671 11.8593 8.65682 11.8575C8.4153 11.8575 3.40036 11.8953 3.01205 11.8575C2.22331 11.8474 1.46289 12.1511 0.898071 12.7016C0.333248 13.2521 0.0102892 14.0045 0.00024161 14.7931C-0.00980594 15.5817 0.293881 16.342 0.844495 16.9067C1.39511 17.4715 2.14755 17.7944 2.93628 17.8044H7.82809C14.0695 17.8044 17.9858 15.598 17.9858 10.2665L18 7.75706Z" fill="#66CA98"/>
</svg>
