<svg width="124" height="100" viewBox="0 0 124 100" fill="none" xmlns="http://www.w3.org/2000/svg">
<mask id="mask0_9_722" style="mask-type:alpha" maskUnits="userSpaceOnUse" x="-238" y="0" width="362" height="100">
<path d="M-238 14C-238 6.26801 -231.732 0 -224 0H110C117.732 0 124 6.26801 124 14V86C124 93.732 117.732 100 110 100H-224C-231.732 100 -238 93.732 -238 86V14Z" fill="white"/>
</mask>
<g mask="url(#mask0_9_722)">
<path fill-rule="evenodd" clip-rule="evenodd" d="M67.8397 -27C75.3331 -27 81.4077 -20.9634 81.4077 -13.517L81.4077 8.9547C81.4077 33.7762 61.1591 53.8981 36.1812 53.8981L13.5679 53.8981C6.07458 53.8981 -1.63615e-06 47.8615 -1.4734e-06 40.4151C-1.31066e-06 32.9686 6.07458 26.932 13.5679 26.932L36.1812 26.932C46.1724 26.932 54.2718 18.8833 54.2718 8.9547L54.2718 -13.517C54.2718 -20.9634 60.3464 -27 67.8397 -27Z" fill="#F4F6F5" fill-opacity="0.15"/>
<path fill-rule="evenodd" clip-rule="evenodd" d="M76.4308 117.271C68.9374 117.271 62.8628 111.234 62.8628 103.788L62.8628 81.3163C62.8628 56.4948 83.1114 36.3729 108.089 36.3729L130.703 36.3729C138.196 36.3729 144.271 42.4095 144.271 49.8559C144.271 57.3024 138.196 63.339 130.703 63.339L108.089 63.339C98.0982 63.3389 89.9987 71.3877 89.9987 81.3163L89.9987 103.788C89.9987 111.234 83.9241 117.271 76.4308 117.271Z" fill="#F4F6F5" fill-opacity="0.15"/>
<path d="M63 46.5052C63 54.5104 56.5081 61 48.5 61C40.4919 61 34 54.5104 34 46.5052C34 38.4999 43.2095 28.2887 48.5 23C54.3784 28.8763 63 38.4999 63 46.5052Z" fill="#F4F6F5"/>
<path d="M51.0269 36.8847C50.5941 36.1349 50.851 35.1762 51.6007 34.7433C52.3505 34.3104 53.3092 34.5673 53.7421 35.3171L58.4448 43.4624C58.8776 44.2122 58.6207 45.1709 57.871 45.6037C57.1212 46.0366 56.1625 45.7797 55.7297 45.03L51.0269 36.8847Z" fill="#FF6C52"/>
<circle cx="49.5" cy="31.5" r="1.5" fill="#FF6C52"/>
<path d="M27 68.7789C27 73.4716 23.1944 77.2759 18.5 77.2759C13.8056 77.2759 10 73.4716 10 68.7789C10 64.0861 15.3986 58.1002 18.5 55C21.9459 58.4447 27 64.0861 27 68.7789Z" fill="#F4F6F5"/>
<path d="M19.9813 63.1394C19.7276 62.6999 19.8781 62.1379 20.3177 61.8841C20.7572 61.6304 21.3192 61.7809 21.5729 62.2205L24.3297 66.9953C24.5834 67.4348 24.4328 67.9968 23.9933 68.2506C23.5538 68.5043 22.9918 68.3537 22.7381 67.9142L19.9813 63.1394Z" fill="#FF6C52"/>
<circle cx="19.0862" cy="59.9828" r="0.87931" fill="#FF6C52"/>
<path d="M87 68.7789C87 73.4716 83.1944 77.2759 78.5 77.2759C73.8056 77.2759 70 73.4716 70 68.7789C70 64.0861 75.3986 58.1002 78.5 55C81.9459 58.4447 87 64.0861 87 68.7789Z" fill="#F4F6F5"/>
<path d="M79.9813 63.1394C79.7276 62.6999 79.8781 62.1379 80.3177 61.8841C80.7572 61.6304 81.3192 61.7809 81.5729 62.2205L84.3297 66.9953C84.5834 67.4348 84.4328 67.9968 83.9933 68.2506C83.5538 68.5043 82.9918 68.3537 82.7381 67.9142L79.9813 63.1394Z" fill="#FF6C52"/>
<circle cx="79.0862" cy="59.9828" r="0.87931" fill="#FF6C52"/>
</g>
</svg>
