<svg width="19" height="18" viewBox="0 0 19 18" fill="none" xmlns="http://www.w3.org/2000/svg">
<path fill-rule="evenodd" clip-rule="evenodd" d="M0 10.1622C0 10.3298 0 15.0487 0 15.202C0.340193 19.0347 5.97494 18.8861 6.09952 15.0248C6.09952 13.669 6.13785 10.6508 6.14264 9.31898C6.14263 8.88367 6.22862 8.45264 6.39567 8.05065C6.56271 7.64865 6.80753 7.2836 7.11605 6.97645C7.42457 6.66931 7.79073 6.42612 8.19351 6.26084C8.59628 6.09557 9.02774 6.01146 9.46311 6.01335C9.70748 6.01335 14.7816 5.97503 15.1745 6.01335C15.5787 6.03381 15.9829 5.97252 16.3629 5.83315C16.7429 5.69379 17.0908 5.47922 17.3859 5.20227C17.681 4.92533 17.9172 4.5917 18.0803 4.22137C18.2435 3.85103 18.3302 3.45159 18.3354 3.04695C18.3406 2.64232 18.264 2.2408 18.1104 1.86642C17.9567 1.49205 17.7291 1.15251 17.4412 0.868133C17.1532 0.583756 16.8109 0.360382 16.4346 0.211377C16.0583 0.0623731 15.6558 -0.00919812 15.2512 0.000945385H10.292C3.9769 -0.00384538 0.0143738 2.22865 0.0143738 7.61347L0 10.1622Z" fill="#F4A3EC"/>
</svg>
