<svg width="25" height="25" viewBox="0 0 25 25" fill="none" xmlns="http://www.w3.org/2000/svg">
<path d="M12.5 2.34375C10.7362 2.34362 9.00269 2.80286 7.47025 3.67626C5.9378 4.54967 4.65925 5.80712 3.76046 7.32481C2.86167 8.8425 2.37364 10.5681 2.34441 12.3317C2.31519 14.0953 2.74578 15.8362 3.59379 17.3828L2.76371 20.3125C2.68627 20.5795 2.68192 20.8623 2.75111 21.1315C2.82029 21.4008 2.96048 21.6465 3.15703 21.843C3.35358 22.0396 3.59929 22.1797 3.86851 22.2489C4.13772 22.3181 4.42058 22.3138 4.68754 22.2363L7.61723 21.4062C8.97493 22.1504 10.4848 22.5743 12.0314 22.6455C13.578 22.7167 15.1204 22.4334 16.5408 21.8172C17.9611 21.201 19.2218 20.2682 20.2264 19.0902C21.2311 17.9121 21.9531 16.52 22.3372 15.0201C22.7214 13.5203 22.7576 11.9525 22.4431 10.4365C22.1285 8.92056 21.4715 7.49658 20.5223 6.27343C19.5731 5.05027 18.3568 4.06032 16.9664 3.37923C15.576 2.69815 14.0483 2.34396 12.5 2.34375ZM12.5 21.0938C10.9574 21.0923 9.44329 20.6775 8.11527 19.8926C7.99273 19.8243 7.85517 19.7874 7.71488 19.7852C7.64228 19.7853 7.57002 19.7951 7.50004 19.8145L4.25785 20.7422L5.18559 17.5C5.21412 17.3974 5.22191 17.2902 5.2085 17.1845C5.19509 17.0789 5.16074 16.977 5.10746 16.8848C4.14003 15.2541 3.73906 13.3492 3.967 11.4669C4.19494 9.58458 5.03899 7.83048 6.36768 6.47784C7.69637 5.12519 9.4351 4.24993 11.313 3.9884C13.191 3.72686 15.1027 4.09373 16.7504 5.03187C18.3981 5.97 19.6894 7.42672 20.4229 9.17514C21.1565 10.9235 21.2913 12.8655 20.8062 14.6985C20.3212 16.5314 19.2435 18.1525 17.7412 19.3093C16.2388 20.466 14.3961 21.0934 12.5 21.0938ZM13.6719 12.5C13.6719 12.7318 13.6032 12.9583 13.4744 13.1511C13.3456 13.3438 13.1626 13.494 12.9485 13.5827C12.7344 13.6714 12.4987 13.6946 12.2714 13.6494C12.0441 13.6041 11.8353 13.4925 11.6714 13.3286C11.5075 13.1648 11.3959 12.9559 11.3507 12.7286C11.3055 12.5013 11.3287 12.2657 11.4174 12.0515C11.5061 11.8374 11.6563 11.6544 11.849 11.5256C12.0417 11.3969 12.2683 11.3281 12.5 11.3281C12.8108 11.3281 13.1089 11.4516 13.3287 11.6714C13.5484 11.8911 13.6719 12.1892 13.6719 12.5ZM8.98441 12.5C8.98441 12.7318 8.91568 12.9583 8.78692 13.1511C8.65815 13.3438 8.47513 13.494 8.261 13.5827C8.04686 13.6714 7.81124 13.6946 7.58392 13.6494C7.3566 13.6041 7.14779 13.4925 6.9839 13.3286C6.82001 13.1648 6.7084 12.9559 6.66318 12.7286C6.61796 12.5013 6.64117 12.2657 6.72987 12.0515C6.81856 11.8374 6.96877 11.6544 7.16148 11.5256C7.35419 11.3969 7.58076 11.3281 7.81254 11.3281C8.12334 11.3281 8.42141 11.4516 8.64118 11.6714C8.86095 11.8911 8.98441 12.1892 8.98441 12.5ZM18.3594 12.5C18.3594 12.7318 18.2907 12.9583 18.1619 13.1511C18.0331 13.3438 17.8501 13.494 17.636 13.5827C17.4219 13.6714 17.1862 13.6946 16.9589 13.6494C16.7316 13.6041 16.5228 13.4925 16.3589 13.3286C16.195 13.1648 16.0834 12.9559 16.0382 12.7286C15.993 12.5013 16.0162 12.2657 16.1049 12.0515C16.1936 11.8374 16.3438 11.6544 16.5365 11.5256C16.7292 11.3969 16.9558 11.3281 17.1875 11.3281C17.4983 11.3281 17.7964 11.4516 18.0162 11.6714C18.2359 11.8911 18.3594 12.1892 18.3594 12.5Z" fill="white" stroke="white" stroke-width="0.2"/>
</svg>
