<svg width="22" height="22" viewBox="0 0 22 22" fill="none" xmlns="http://www.w3.org/2000/svg">
<g clip-path="url(#clip0_9_712)">
<path d="M21.9995 5.92553C21.9758 4.34677 21.3402 2.86207 20.2098 1.74493C19.0795 0.627953 17.5874 0.00971826 16.0054 0.00408936C14.1855 0.00408936 12.7995 0.954558 11.5902 1.95483C11.5889 1.95483 11.5875 1.95483 11.5861 1.95483C11.0276 1.95483 10.437 1.61817 9.75581 1.2299C8.79773 0.683726 7.60548 0.00408936 5.99466 0.00408936C2.73845 0.00408936 0.0495082 2.66046 0.000523855 5.92557C-0.0205738 7.32893 0.597532 10.4253 1.50357 13.4554C2.14909 15.6143 3.47287 19.4804 5.08549 21.1174C5.66024 21.7009 6.26159 21.9967 6.8726 21.9967C7.32339 21.9967 7.73129 21.8094 8.05222 21.4549C8.27063 21.2137 8.45054 20.8929 8.60214 20.4742C8.83842 19.8217 8.98611 18.992 9.14247 18.1134C9.54367 15.8594 9.9355 14.1341 11.0021 14.1278C12.0688 14.1341 12.4606 15.8593 12.8618 18.1134C13.0182 18.9919 13.1658 19.8217 13.4021 20.4742C13.5537 20.8929 13.7336 21.2137 13.952 21.4549C14.2693 21.8053 14.6714 21.9924 15.1161 21.9967C15.1207 21.9967 15.1252 21.9967 15.1298 21.9967C15.1304 21.9967 15.131 21.9967 15.1317 21.9967C15.1346 21.9967 15.1376 21.9967 15.1404 21.9966C15.747 21.9925 16.3439 21.6967 16.9147 21.1173C18.5272 19.4804 19.8509 15.6142 20.4964 13.4554C21.4025 10.4253 22.0206 7.32889 21.9995 5.92553ZM18.8503 12.963C17.8295 16.3766 16.6779 18.9092 15.6906 19.9114C15.4771 20.1282 15.3069 20.2331 15.1975 20.2663C15.1436 20.1908 15.0387 20.0031 14.9182 19.576C14.7804 19.0879 14.6701 18.4682 14.5533 17.8122C14.3559 16.7029 14.132 15.4456 13.6963 14.4515C12.9643 12.7819 11.8439 12.4173 11.0227 12.4096C11.0179 12.4096 11.013 12.4095 11.008 12.4095H10.9961C10.9912 12.4095 10.9863 12.4096 10.9814 12.4096C10.1603 12.4173 9.03986 12.7819 8.30793 14.4515C7.8721 15.4456 7.64832 16.7029 7.45088 17.8122C7.33413 18.4683 7.22383 19.0879 7.08607 19.576C6.96499 20.0051 6.85967 20.1924 6.806 20.2674C6.69677 20.2354 6.5252 20.1305 6.3095 19.9115C5.32216 18.9093 4.17051 16.3767 3.14979 12.9631C2.19949 9.78511 1.70312 6.97856 1.71854 5.95135C1.75356 3.61939 3.67186 1.72224 5.99475 1.72224C7.15022 1.72224 8.0423 2.23077 8.90494 2.72242C9.25853 2.92399 9.61719 3.12848 9.99183 3.29584C9.14522 3.96138 8.32572 4.4416 7.36833 4.4416V6.15979C9.31666 6.15979 10.7176 4.95903 12.0724 3.79784C13.3178 2.73041 14.4941 1.72215 16.0023 1.72215C18.327 1.73044 20.2467 3.6276 20.2816 5.95126C20.2969 6.97848 19.8005 9.78502 18.8503 12.963Z" fill="#F7C25D"/>
</g>
<defs>
<clipPath id="clip0_9_712">
<rect width="22" height="22" fill="white"/>
</clipPath>
</defs>
</svg>
