<svg width="22" height="22" viewBox="0 0 22 22" fill="none" xmlns="http://www.w3.org/2000/svg">
<path d="M9.16667 12.4667L14.575 7.05836C14.7431 6.8903 14.9569 6.80627 15.2167 6.80627C15.4764 6.80627 15.6903 6.8903 15.8583 7.05836C16.0264 7.22641 16.1104 7.4403 16.1104 7.70002C16.1104 7.95975 16.0264 8.17364 15.8583 8.34169L9.80834 14.3917C9.625 14.575 9.41112 14.6667 9.16667 14.6667C8.92223 14.6667 8.70834 14.575 8.525 14.3917L6.14167 12.0084C5.97361 11.8403 5.88959 11.6264 5.88959 11.3667C5.88959 11.107 5.97361 10.8931 6.14167 10.725C6.30973 10.557 6.52362 10.4729 6.78334 10.4729C7.04306 10.4729 7.25695 10.557 7.425 10.725L9.16667 12.4667Z" fill="#F4F6F5"/>
</svg>
