<svg width="48" height="48" viewBox="0 0 48 48" fill="none" xmlns="http://www.w3.org/2000/svg">
<path d="M18.2253 16.5213L11.9421 31.5143H7.84106L4.75125 19.5503C4.56103 18.8124 4.39847 18.5439 3.82809 18.2306C2.89378 17.7255 1.35694 17.2517 0 16.9566L0.0949688 16.5214H6.693C7.5345 16.5214 8.29106 17.0827 8.48128 18.0503L10.1151 26.7279L14.1504 16.5214L18.2253 16.5213ZM34.289 26.617C34.3072 22.6621 28.8165 22.4468 28.856 20.6775C28.8667 20.1374 29.3785 19.5659 30.4996 19.4216C31.0563 19.3476 32.5882 19.2933 34.3246 20.0904L35.0051 16.9125C34.0709 16.5734 32.8701 16.2487 31.3776 16.2487C27.5442 16.2487 24.8456 18.2876 24.8228 21.205C24.7977 23.3624 26.7482 24.5663 28.2194 25.2848C29.7301 26.02 30.2352 26.4894 30.2299 27.1488C30.22 28.1551 29.0245 28.5949 27.9095 28.6147C25.959 28.645 24.8277 28.0876 23.9242 27.6668L23.2221 30.954C24.127 31.3695 25.8025 31.7303 27.5365 31.7515C31.6108 31.7513 34.2761 29.7341 34.289 26.617ZM44.412 31.5144H48L44.8692 16.5214H41.5569C40.8127 16.5214 40.1852 16.9554 39.9056 17.6204L34.0892 31.5144H38.1603L38.9684 29.2753H43.9448L44.412 31.5144ZM40.0841 26.2023L42.1266 20.5726L43.3015 26.2023H40.0841ZM23.768 16.5213L20.5589 31.5143H16.6796L19.8894 16.5213H23.768Z" fill="#1A2ADF"/>
</svg>
