<svg width="17" height="20" viewBox="0 0 17 20" fill="none" xmlns="http://www.w3.org/2000/svg">
<path d="M15.0093 0C15.0093 0.16677 15.0093 0.333541 15.0093 0.500311C13.8419 6.17048 10.1729 8.00494 5.33663 8.00494H2.83508C2.33477 8.00494 1.83447 8.50525 1.6677 9.00556L0 19.1785C0 19.512 0.166769 19.8456 0.667078 19.8456H5.00309C5.5034 19.8456 6.00371 19.512 6.00371 19.0117V18.845L6.83755 13.6751V13.3416C6.83755 12.8413 7.33786 12.5077 7.83817 12.5077H8.50525C12.6745 12.5077 16.0099 10.84 16.8437 5.83694C17.1773 3.8357 17.0105 2.00124 16.0099 0.833848C15.8431 0.500309 15.5096 0.16677 15.0093 0Z" fill="#139AD6"/>
</svg>
