<svg width="24" height="24" viewBox="0 0 24 24" fill="none" xmlns="http://www.w3.org/2000/svg">
<g clip-path="url(#clip0_9_906)">
<path d="M11.1678 12.7647L11.1547 12.7515L11.1412 12.7387C10.2047 11.857 9.44902 10.8037 8.91402 9.63798L10.2299 8.05634L10.248 8.03466L10.2647 8.01201C10.437 7.77949 10.5299 7.49779 10.5299 7.20843C10.5299 6.92886 10.4432 6.65643 10.2819 6.4286L7.70748 2.61113C7.53723 2.34812 7.31054 2.12625 7.0438 1.96168C6.77279 1.79446 6.46745 1.69072 6.15067 1.65823C5.83388 1.62574 5.51385 1.66534 5.21453 1.77406C4.92096 1.88069 4.65477 2.05112 4.43511 2.27296L2.55937 4.0825C2.17322 4.44831 1.88766 4.90735 1.7302 5.4155C1.57215 5.92557 1.54854 6.46783 1.66166 6.98971L1.66203 6.99139C2.47906 10.7298 4.36336 14.1508 7.08637 16.8395L7.09212 16.8451L7.09796 16.8507C9.87726 19.5076 13.3479 21.3291 17.1133 22.107C17.6336 22.2155 18.1727 22.1937 18.6826 22.0434C19.1928 21.893 19.6579 21.6187 20.0363 21.2448L21.8491 19.4541C22.0826 19.2336 22.2628 18.9627 22.3758 18.662C22.491 18.3556 22.5334 18.0267 22.4996 17.7011L21.505 17.8043L22.4996 17.7011C22.4658 17.3756 22.3568 17.0623 22.1812 16.7861C22.0087 16.515 21.7768 16.2869 21.5029 16.1191L17.6338 13.6263C17.4085 13.4759 17.1435 13.3956 16.8723 13.3956C16.5944 13.3956 16.3229 13.48 16.094 13.6376L16.0656 13.6572L16.0385 13.6787L14.3998 14.9827C13.1922 14.4574 12.0947 13.705 11.1678 12.7647Z" stroke="white" stroke-width="2"/>
</g>
<defs>
<clipPath id="clip0_9_906">
<rect width="24" height="24" fill="white"/>
</clipPath>
</defs>
</svg>
