<svg width="25" height="18" viewBox="0 0 25 18" fill="none" xmlns="http://www.w3.org/2000/svg">
<path fill-rule="evenodd" clip-rule="evenodd" d="M6.56349 1.70471C6.46455 1.79925 6.3583 1.90286 6.21642 2.04266C6.21642 2.04266 3.87892 4.33375 3.87111 4.34037C3.79859 4.40775 3.73824 4.46536 3.67568 4.52628C3.64694 4.55443 3.62136 4.57919 3.56684 4.63173C3.51995 4.6769 3.49824 4.69787 3.47123 4.7242L1.35775 6.79666C1.31239 6.84275 1.27347 6.88156 1.22342 6.9308L1.16644 6.9869C1.10191 7.05023 1.05086 7.10176 0.978707 7.17547C0.813198 7.33544 0.645369 7.51634 0.487337 7.70606C0.340501 7.85941 0.221957 8.03668 0.137084 8.22998L0.114659 8.28846C-0.0382192 8.75203 -0.0382192 9.25097 0.114659 9.71454L0.13807 9.77525C0.223587 9.96807 0.342761 10.1447 0.490154 10.2973C0.647519 10.4867 0.815226 10.6676 0.992541 10.8393C1.02984 10.8787 1.08481 10.9337 1.15822 11.0056C1.20893 11.0552 1.23075 11.0767 1.25792 11.1035C1.29304 11.1382 1.32339 11.1685 1.35157 11.1971L3.47062 13.2765C3.57561 13.3794 3.6226 13.4251 3.70669 13.5054C3.77581 13.5723 3.81672 13.6113 3.89246 13.6798L6.21851 15.9614C6.39285 16.1322 6.47106 16.2084 6.56964 16.3033C6.69779 16.4288 6.78226 16.51 6.91421 16.6363C6.96392 16.6876 6.98255 16.7065 7.00803 16.7298C7.30582 17.0229 7.66904 17.2819 8.06676 17.4807C8.46489 17.6771 8.88699 17.8135 9.32262 17.8872C9.73078 17.9531 10.1381 17.9882 10.5463 17.9933C10.7195 17.997 10.8932 17.9993 11.0648 18L11.4736 18H19.0775C19.2353 18 19.3917 17.9978 19.6086 17.9932C20.0145 17.9883 20.4259 17.953 20.8328 17.8875C21.2771 17.8123 21.7022 17.6746 22.0996 17.4779C22.5024 17.2784 22.8699 17.0175 23.1886 16.7048C23.5059 16.3928 23.7712 16.0349 23.9756 15.6435C24.178 15.249 24.318 14.8319 24.3934 14.4015C24.4608 13.998 24.4967 13.5954 24.5016 13.1918C24.5047 13.0927 24.5061 13.0054 24.5085 12.811L24.51 12.6866L24.5101 12.0733V5.28388L24.5089 5.17648C24.5076 5.05669 24.507 5.00438 24.5058 4.93725C24.5047 4.8743 24.5033 4.81655 24.5016 4.76092C24.4971 4.37292 24.4616 3.97384 24.3957 3.57905C24.3199 3.1469 24.181 2.73333 23.9827 2.34634C23.7773 1.95313 23.5137 1.59794 23.1991 1.28885C22.8843 0.978353 22.5196 0.718555 22.1198 0.520303C21.7253 0.324864 21.3036 0.188019 20.8683 0.114139C20.4582 0.0488125 20.0509 0.0139625 19.6425 0.00872527C19.4577 0.0043399 19.2871 0.00200033 19.1231 0.00200033C18.9575 0.000336941 18.8205 0 18.5131 0H11.6754C11.3702 0 11.2324 0.000338992 11.0593 0.00203367C10.9025 0.00200033 10.7324 0.00432497 10.5374 0.00885554C10.1369 0.014007 9.73019 0.0488634 9.32778 0.113009C8.8852 0.188142 8.46315 0.324838 8.06836 0.519804C7.66766 0.719753 7.30425 0.979106 6.98915 1.28944C6.97455 1.30351 6.96387 1.31452 6.87466 1.4078C6.76398 1.51059 6.66221 1.60767 6.56349 1.70471ZM3.91715 4.30257L3.91968 4.30063C3.91662 4.30289 3.91449 4.30446 3.91185 4.3066L3.91715 4.30257ZM7.18157 15.0188L4.83063 12.7127C4.83063 12.7127 4.78374 12.6709 4.77886 12.6669C4.74259 12.6329 4.71138 12.6031 4.63344 12.5276C4.57718 12.4741 4.53341 12.4316 4.43375 12.334L2.3232 10.2631C2.29845 10.2378 2.26397 10.2033 2.22486 10.1647C2.19581 10.136 2.17234 10.113 2.12094 10.0626C2.0563 9.9993 2.0099 9.95289 1.96664 9.9079C1.80138 9.74729 1.66147 9.59568 1.53059 9.43673L1.48574 9.38746C1.45111 9.35302 1.42212 9.31362 1.39971 9.27068C1.34861 9.09426 1.34874 8.90734 1.4001 8.73098C1.42253 8.68726 1.45169 8.64712 1.4866 8.61196L1.52784 8.56646C1.65944 8.40718 1.79994 8.25515 1.9487 8.11108C2.0284 8.03 2.07447 7.9835 2.10931 7.94892C2.15338 7.90594 2.15345 7.90588 2.18812 7.87181L2.18828 7.87166C2.24365 7.81718 2.28794 7.77302 2.33045 7.72964L4.43301 5.66808C4.45608 5.6456 4.47563 5.62671 4.53089 5.57347C4.57865 5.52744 4.60631 5.50067 4.63696 5.47065C4.68438 5.42448 4.73102 5.37983 4.77684 5.33681C4.7869 5.32857 4.79862 5.31792 4.83199 5.28762L7.18086 2.98393C7.31952 2.84732 7.42148 2.74788 7.5213 2.65241C7.61728 2.55815 7.70992 2.46978 7.80789 2.37877C7.8296 2.35892 7.84258 2.34563 7.90255 2.28331L7.94995 2.23426C8.16796 2.01959 8.41415 1.84389 8.68386 1.7093C8.95621 1.57481 9.2501 1.47962 9.55344 1.4281C9.88251 1.37568 10.2221 1.34657 10.5626 1.34217C10.7547 1.33774 10.9143 1.33556 11.0661 1.33556C11.2399 1.33389 11.3747 1.33356 11.6754 1.33356H18.5131C18.816 1.33356 18.9499 1.33388 19.1162 1.33552C19.2751 1.33556 19.4352 1.33775 19.6173 1.34203C19.9658 1.34654 20.3061 1.37565 20.6429 1.42927C20.9383 1.47944 21.2312 1.5745 21.5051 1.71018C21.7747 1.84388 22.0209 2.01924 22.234 2.22946C22.4498 2.44143 22.6297 2.68394 22.7683 2.94921C22.904 3.21416 23.0008 3.50228 23.053 3.79958C23.1069 4.12304 23.1365 4.45548 23.1405 4.78868C23.1423 4.85028 23.1435 4.90252 23.1445 4.96018C23.1456 5.02348 23.1462 5.07391 23.1475 5.19082L23.1487 5.29188L23.1486 5.88165V12.6719L23.1471 12.7953C23.1448 12.9817 23.1435 13.0638 23.1404 13.1641C23.1361 13.5127 23.1062 13.8487 23.0507 14.1811C22.9989 14.4766 22.9011 14.768 22.7612 15.0406C22.6234 15.3045 22.4416 15.5497 22.2245 15.7631C22.0086 15.975 21.7589 16.1523 21.4854 16.2878C21.2086 16.4248 20.9124 16.5207 20.6066 16.5725C20.2727 16.6262 19.9294 16.6557 19.5854 16.6598C19.3711 16.6644 19.2235 16.6664 19.0775 16.6664H11.0675C10.907 16.6658 10.7415 16.6636 10.5699 16.6599C10.2236 16.6556 9.88449 16.6264 9.54908 16.5723C9.25109 16.5218 8.95724 16.4269 8.68236 16.2913C8.41545 16.1579 8.16871 15.9819 7.95452 15.7715C7.9417 15.7592 7.92392 15.7412 7.90143 15.718L7.89859 15.715L7.8985 15.7149L7.89844 15.7149L7.89839 15.7148L7.89834 15.7148C7.84501 15.6597 7.83293 15.6472 7.82029 15.6354L7.80497 15.6213C7.72714 15.5497 7.65109 15.4767 7.52807 15.3562C7.42903 15.2608 7.35271 15.1864 7.18157 15.0188ZM12.0638 12.5288C12.0086 12.5824 11.9424 12.6261 11.8678 12.6564C11.6396 12.749 11.3769 12.6978 11.2023 12.5268C11.0874 12.4145 11.0228 12.2621 11.0228 12.1032C11.0228 11.9442 11.0874 11.7918 11.2023 11.6796V11.6809C11.2351 11.6488 11.2711 11.6208 11.3093 11.5973L13.9593 8.9985L11.2023 6.30105L11.2111 6.29241C11.1562 6.23825 11.1114 6.17333 11.0805 6.10005C10.9859 5.87655 11.0382 5.61929 11.2128 5.44824C11.3275 5.33527 11.4834 5.27174 11.646 5.27174C11.8086 5.27174 11.9645 5.33527 12.0791 5.44824H12.0764C12.106 5.47723 12.132 5.50869 12.1545 5.54204L14.8217 8.15282L17.4963 5.52984C17.517 5.50055 17.5406 5.47266 17.5672 5.44657C17.7419 5.27551 18.0045 5.22433 18.2327 5.3169C18.4609 5.40947 18.6096 5.62756 18.6096 5.86948C18.6096 6.03035 18.5439 6.18069 18.4327 6.29059L18.4396 6.29738L15.6855 8.99835L18.3507 11.6073C18.3835 11.6288 18.4143 11.6535 18.4427 11.6813L18.4413 11.6826C18.616 11.8537 18.6682 12.1109 18.5737 12.3344C18.4792 12.5579 18.2565 12.7036 18.0095 12.7036C17.8453 12.7036 17.6918 12.6392 17.5796 12.5303L17.5744 12.5354L14.8233 9.84383L12.0747 12.5394L12.0638 12.5288Z" fill="#1C1F1E"/>
</svg>
