<svg width="28" height="28" viewBox="0 0 28 28" fill="none" xmlns="http://www.w3.org/2000/svg">
<path d="M17.5 11.6667L22.8118 9.01132C22.9897 8.92246 23.1872 8.88051 23.3858 8.88946C23.5844 8.8984 23.7774 8.95794 23.9465 9.06243C24.1157 9.16691 24.2553 9.31288 24.3521 9.48647C24.449 9.66006 24.4999 9.85553 24.5 10.0543V17.9457C24.4999 18.1444 24.449 18.3399 24.3521 18.5135C24.2553 18.6871 24.1157 18.8331 23.9465 18.9375C23.7774 19.042 23.5844 19.1016 23.3858 19.1105C23.1872 19.1195 22.9897 19.0775 22.8118 18.9887L17.5 16.3333V11.6667Z" stroke="white" stroke-width="2" stroke-linecap="round" stroke-linejoin="round"/>
<path d="M15.1667 7H5.83333C4.54467 7 3.5 8.04467 3.5 9.33333V18.6667C3.5 19.9553 4.54467 21 5.83333 21H15.1667C16.4553 21 17.5 19.9553 17.5 18.6667V9.33333C17.5 8.04467 16.4553 7 15.1667 7Z" stroke="white" stroke-width="2" stroke-linecap="round" stroke-linejoin="round"/>
</svg>
