<svg width="14" height="16" viewBox="0 0 14 16" fill="none" xmlns="http://www.w3.org/2000/svg">
<path d="M8.85605 0H3.17481C2.84061 0 2.50642 0.33419 2.33933 0.66838L0 15.3728C0 15.7069 0.167094 15.874 0.501284 15.874H3.509C3.84319 15.874 4.01028 15.7069 4.01028 15.3728L4.67866 11.1954C4.67866 10.8612 5.01286 10.527 5.51414 10.527H7.35219C11.1954 10.527 13.3676 8.68895 13.8689 5.01286C14.2031 3.509 13.8689 2.17224 13.2005 1.33676C12.1979 0.501288 10.6941 0 8.85605 0ZM9.52442 5.51414C9.19023 7.51929 7.68637 7.51929 6.18252 7.51929H5.17995L5.84833 3.6761C5.84833 3.509 6.01543 3.3419 6.34962 3.3419H6.68381C7.68638 3.3419 8.68895 3.3419 9.19024 4.01028C9.52443 4.17738 9.52442 4.67867 9.52442 5.51414Z" fill="#139AD6"/>
</svg>
