<svg width="188" height="28" viewBox="0 0 188 28" fill="none" xmlns="http://www.w3.org/2000/svg">
<circle cx="13" cy="14" r="13" fill="#1C1F1E"/>
<path d="M17.9 12.7876C18.8333 13.3264 18.8333 14.6736 17.9 15.2124L11.6 18.8497C10.6667 19.3886 9.5 18.715 9.5 17.6373L9.5 10.3627C9.5 9.28497 10.6667 8.6114 11.6 9.15026L17.9 12.7876Z" fill="white"/>
<rect x="36" y="8" width="2" height="12" rx="1" fill="#1C1F1E"/>
<rect x="41" width="2" height="28" rx="1" fill="#1C1F1E"/>
<rect x="46" y="1.5" width="2" height="25" rx="1" fill="#1C1F1E"/>
<rect x="51" width="2" height="28" rx="1" fill="#1C1F1E"/>
<rect x="56" y="5" width="2" height="18" rx="1" fill="#1C1F1E"/>
<rect x="61" y="8" width="2" height="12" rx="1" fill="#1C1F1E"/>
<rect x="66" y="8" width="2" height="12" rx="1" fill="#1C1F1E"/>
<rect x="71" y="8" width="2" height="12" rx="1" fill="#1C1F1E"/>
<rect x="76" y="5" width="2" height="18" rx="1" fill="#1C1F1E"/>
<rect x="81" y="6.5" width="2" height="15" rx="1" fill="#CDCFCE"/>
<rect x="86" width="2" height="28" rx="1" fill="#CDCFCE"/>
<rect x="91" width="2" height="28" rx="1" fill="#CDCFCE"/>
<rect x="96" y="11.5" width="2" height="5" rx="1" fill="#CDCFCE"/>
<rect x="101" y="12.5" width="2" height="3" rx="1" fill="#CDCFCE"/>
<rect x="106" y="12.5" width="2" height="3" rx="1" fill="#CDCFCE"/>
<rect x="111" y="8" width="2" height="12" rx="1" fill="#CDCFCE"/>
<rect x="116" y="10" width="2" height="8" rx="1" fill="#CDCFCE"/>
<rect x="121" y="8" width="2" height="12" rx="1" fill="#CDCFCE"/>
<rect x="126" y="10" width="2" height="8" rx="1" fill="#CDCFCE"/>
<rect x="131" y="11.5" width="2" height="5" rx="1" fill="#CDCFCE"/>
<rect x="136" y="12.5" width="2" height="3" rx="1" fill="#CDCFCE"/>
<rect x="141" y="1.5" width="2" height="25" rx="1" fill="#CDCFCE"/>
<rect x="146" width="2" height="28" rx="1" fill="#CDCFCE"/>
<rect x="151" y="5" width="2" height="18" rx="1" fill="#CDCFCE"/>
<rect x="156" y="8" width="2" height="12" rx="1" fill="#CDCFCE"/>
<rect x="161" y="12.5" width="2" height="3" rx="1" fill="#CDCFCE"/>
<rect x="166" y="10" width="2" height="8" rx="1" fill="#CDCFCE"/>
<rect x="171" y="12.5" width="2" height="3" rx="1" fill="#CDCFCE"/>
<rect x="176" y="10" width="2" height="8" rx="1" fill="#CDCFCE"/>
<rect x="181" y="5" width="2" height="18" rx="1" fill="#CDCFCE"/>
<rect x="186" y="12.5" width="2" height="3" rx="1" fill="#CDCFCE"/>
</svg>
