<svg width="28" height="28" viewBox="0 0 28 28" fill="none" xmlns="http://www.w3.org/2000/svg">
<path d="M24.2461 3.75376C24.128 3.63623 23.9788 3.55485 23.8161 3.5192C23.6533 3.48355 23.4838 3.4951 23.3274 3.55251L4.07738 10.5525C3.91136 10.6155 3.76843 10.7275 3.66757 10.8736C3.56671 11.0197 3.5127 11.1931 3.5127 11.3706C3.5127 11.5482 3.56671 11.7215 3.66757 11.8677C3.76843 12.0138 3.91136 12.1258 4.07738 12.1888L10.9806 14.9452C11.3524 15.0937 11.777 15.0061 12.0597 14.7225L16.5247 10.2433C16.865 9.90201 17.4177 9.90157 17.7585 10.2424C18.0989 10.5828 18.0989 11.1347 17.7585 11.4752L13.2676 15.966C12.9846 16.249 12.8976 16.6734 13.0464 17.0449L15.8111 23.9488C15.876 24.1116 15.9882 24.2512 16.1333 24.3494C16.2784 24.4477 16.4496 24.5002 16.6249 24.5C16.8017 24.4964 16.9733 24.4393 17.117 24.3362C17.2607 24.2331 17.3698 24.0889 17.4299 23.9225L24.4299 4.67251C24.4895 4.5177 24.5039 4.34914 24.4713 4.18647C24.4388 4.0238 24.3607 3.87373 24.2461 3.75376Z" fill="white"/>
</svg>
