<svg width="14" height="11" viewBox="0 0 14 11" fill="none" xmlns="http://www.w3.org/2000/svg">
<path d="M12.9378 0.333335H10.2711C10.1044 0.333335 9.77109 0.5 9.77109 0.666667L9.60443 1.5L9.43776 1.16667C8.77109 0.333335 7.60443 0 6.27109 0C3.27108 0 0.604412 2.33334 0.104411 5.50001C-0.228923 7.16668 0.271075 8.66668 1.10441 9.66669C1.93775 10.6667 3.10442 11 4.60442 11C7.10443 11 8.43776 9.50002 8.43776 9.50002L8.27109 10.3334C8.27109 10.6667 8.43776 10.8334 8.7711 10.8334H11.2711C11.6044 10.8334 11.9378 10.5 12.1044 10.1667L13.6044 0.833335C13.4378 0.666668 13.2711 0.333335 12.9378 0.333335ZM9.10442 5.66668C8.77109 7.16668 7.60443 8.33335 5.93776 8.33335C5.10442 8.33335 4.43775 8.00002 4.10441 7.66668C3.77108 7.16668 3.60442 6.50001 3.60442 5.66668C3.77108 4.16667 5.10442 3.00001 6.60442 3.00001C7.43775 3.00001 7.93776 3.33334 8.43776 3.66667C9.10443 4.16667 9.27109 5.00001 9.10442 5.66668Z" fill="#139AD6"/>
</svg>
