<svg width="40" height="25" viewBox="0 0 40 25" fill="none" xmlns="http://www.w3.org/2000/svg">
<path d="M25.4083 2.65369H14.5921V22.1705H25.4083V2.65369Z" fill="#FF5F00"/>
<path d="M15.279 12.4121C15.2773 10.5325 15.7015 8.67713 16.5195 6.98647C17.3375 5.29581 18.5278 3.81417 20.0003 2.65371C18.1768 1.21447 15.9867 0.319432 13.6805 0.0708889C11.3743 -0.177654 9.04501 0.230321 6.95881 1.2482C4.87261 2.26608 3.1137 3.8528 1.88313 5.82697C0.652569 7.80114 0 10.0831 0 12.4121C0 14.7411 0.652569 17.0231 1.88313 18.9972C3.1137 20.9714 4.87261 22.5581 6.95881 23.576C9.04501 24.5939 11.3743 25.0019 13.6805 24.7533C15.9867 24.5048 18.1768 23.6097 20.0003 22.1705C18.5278 21.01 17.3375 19.5284 16.5195 17.8377C15.7015 16.1471 15.2773 14.2917 15.279 12.4121Z" fill="#EB001B"/>
<path d="M40.0002 12.4121C40.0003 14.741 39.3478 17.023 38.1173 18.9972C36.8868 20.9714 35.128 22.5581 33.0418 23.576C30.9556 24.5939 28.6264 25.0019 26.3202 24.7533C24.014 24.5048 21.824 23.6097 20.0005 22.1705C21.4718 21.0089 22.6611 19.527 23.479 17.8366C24.2968 16.1462 24.7218 14.2914 24.7218 12.4121C24.7218 10.5328 24.2968 8.67801 23.479 6.98761C22.6611 5.29722 21.4718 3.81534 20.0005 2.65371C21.824 1.21447 24.014 0.319426 26.3202 0.0708857C28.6264 -0.177654 30.9556 0.230339 33.0418 1.24823C35.128 2.26612 36.8868 3.85283 38.1173 5.82701C39.3478 7.80119 40.0003 10.0832 40.0002 12.4121Z" fill="#F79E1B"/>
<path d="M38.8207 20.1034V19.7038H38.9811V19.6224H38.5725V19.7038H38.733V20.1034H38.8207ZM39.614 20.1034V19.6216H39.4888L39.3447 19.953L39.2006 19.6216H39.0752V20.1034H39.1637V19.74L39.2988 20.0533H39.3905L39.5256 19.7392V20.1034H39.614Z" fill="#F79E1B"/>
</svg>
