<svg width="16" height="16" viewBox="0 0 16 16" fill="none" xmlns="http://www.w3.org/2000/svg">
<path d="M7.99996 8.00004C8.36663 8.00004 8.68063 7.86937 8.94196 7.60804C9.20285 7.34715 9.33329 7.03337 9.33329 6.66671C9.33329 6.30004 9.20285 5.98604 8.94196 5.72471C8.68063 5.46382 8.36663 5.33337 7.99996 5.33337C7.63329 5.33337 7.31952 5.46382 7.05863 5.72471C6.79729 5.98604 6.66663 6.30004 6.66663 6.66671C6.66663 7.03337 6.79729 7.34715 7.05863 7.60804C7.31952 7.86937 7.63329 8.00004 7.99996 8.00004ZM7.99996 12.9C9.35552 11.6556 10.3611 10.5249 11.0166 9.50804C11.6722 8.4916 12 7.58893 12 6.80004C12 5.58893 11.6137 4.59715 10.8413 3.82471C10.0693 3.05271 9.12218 2.66671 7.99996 2.66671C6.87774 2.66671 5.9304 3.05271 5.15796 3.82471C4.38596 4.59715 3.99996 5.58893 3.99996 6.80004C3.99996 7.58893 4.32774 8.4916 4.98329 9.50804C5.63885 10.5249 6.6444 11.6556 7.99996 12.9ZM7.99996 14.4167C7.91107 14.4167 7.82218 14.4 7.73329 14.3667C7.6444 14.3334 7.56663 14.2889 7.49996 14.2334C5.87774 12.8 4.66663 11.4696 3.86663 10.242C3.06663 9.01404 2.66663 7.86671 2.66663 6.80004C2.66663 5.13337 3.20285 3.8056 4.27529 2.81671C5.34729 1.82782 6.58885 1.33337 7.99996 1.33337C9.41107 1.33337 10.6526 1.82782 11.7246 2.81671C12.7971 3.8056 13.3333 5.13337 13.3333 6.80004C13.3333 7.86671 12.9333 9.01404 12.1333 10.242C11.3333 11.4696 10.1222 12.8 8.49996 14.2334C8.43329 14.2889 8.35552 14.3334 8.26663 14.3667C8.17774 14.4 8.08885 14.4167 7.99996 14.4167Z" fill="#A7A6A5"/>
</svg>
