<svg width="414" height="569" viewBox="0 0 414 569" fill="none" xmlns="http://www.w3.org/2000/svg">
<mask id="mask0_9_350" style="mask-type:alpha" maskUnits="userSpaceOnUse" x="0" y="-31" width="414" height="600">
<path d="M0 -31H414V531C414 551.987 396.987 569 376 569H38C17.0132 569 0 551.987 0 531V-31Z" fill="#F5F5F5"/>
</mask>
<g mask="url(#mask0_9_350)">
<path fill-rule="evenodd" clip-rule="evenodd" d="M327.5 470C308.998 470 294 455.002 294 436.5V380.667C294 318.995 343.995 269 405.667 269H461.5C480.002 269 495 283.998 495 302.5C495 321.002 480.002 336 461.5 336H405.667C380.998 336 361 355.998 361 380.667V436.5C361 455.002 346.002 470 327.5 470Z" fill="#76D4A5"/>
<path fill-rule="evenodd" clip-rule="evenodd" d="M461.5 404C480.002 404 495 418.998 495 437.5V493.333C495 555.005 445.005 605 383.333 605H327.5C308.998 605 294 590.002 294 571.5C294 552.998 308.998 538 327.5 538H383.333C408.002 538 428 518.002 428 493.333V437.5C428 418.998 442.998 404 461.5 404Z" fill="#76D4A5"/>
<path fill-rule="evenodd" clip-rule="evenodd" d="M-46.5 555C-65.0015 555 -80 540.002 -80 521.5V465.667C-80 403.995 -30.0051 354 31.6667 354H87.5C106.002 354 121 368.998 121 387.5C121 406.002 106.002 421 87.5 421H31.6667C6.99795 421 -13 440.998 -13 465.667V521.5C-13 540.002 -27.9985 555 -46.5 555Z" fill="#76D4A5"/>
<path fill-rule="evenodd" clip-rule="evenodd" d="M87.5 85C106.002 85 121 99.9985 121 118.5V174.333C121 236.005 71.0051 286 9.33334 286H-46.5C-65.0015 286 -80 271.002 -80 252.5C-80 233.998 -65.0015 219 -46.5 219H9.33334C34.0021 219 54 199.002 54 174.333V118.5C54 99.9985 68.9985 85 87.5 85Z" fill="#76D4A5"/>
<path fill-rule="evenodd" clip-rule="evenodd" d="M87.5 489C106.002 489 121 503.998 121 522.5V578.333C121 640.005 71.0051 690 9.33334 690H-46.5C-65.0015 690 -80 675.002 -80 656.5C-80 637.998 -65.0015 623 -46.5 623H9.33334C34.0021 623 54 603.002 54 578.333V522.5C54 503.998 68.9985 489 87.5 489Z" fill="#76D4A5"/>
<path fill-rule="evenodd" clip-rule="evenodd" d="M461.5 0C480.002 0 495 14.9985 495 33.5V89.3333C495 151.005 445.005 201 383.333 201H327.5C308.998 201 294 186.002 294 167.5C294 148.998 308.998 134 327.5 134H383.333C408.002 134 428 114.002 428 89.3333V33.5C428 14.9985 442.998 0 461.5 0Z" fill="#76D4A5"/>
</g>
</svg>
