<svg width="20" height="23" viewBox="0 0 20 23" fill="none" xmlns="http://www.w3.org/2000/svg">
<path d="M18.6268 1.94366C17.493 0.647886 15.3873 0 12.4718 0H4.37324C3.88732 0 3.40141 0.485913 3.23944 0.971829L0 22.1901C0 22.6761 0.323944 23 0.647887 23H5.66902L6.96479 15.0634V15.3873C7.12676 14.9014 7.61268 14.4155 8.09859 14.4155H10.5282C15.2254 14.4155 18.7887 12.4718 19.9225 7.12676C19.9225 6.96479 19.9225 6.80282 19.9225 6.64084C19.7606 6.64084 19.7606 6.64084 19.9225 6.64084C20.0845 4.53521 19.7606 3.23944 18.6268 1.94366Z" fill="#263B80"/>
</svg>
