<svg width="21" height="21" viewBox="0 0 21 21" fill="none" xmlns="http://www.w3.org/2000/svg">
<g clip-path="url(#clip0_9_704)">
<path d="M19.39 11.13C17.7537 9.2575 14.42 6.125 10.5 6.125C6.57997 6.125 3.24622 9.2575 1.60997 11.13C1.13979 11.6884 0.881958 12.395 0.881958 13.125C0.881958 13.855 1.13979 14.5616 1.60997 15.12C3.24622 16.9925 6.57997 20.125 10.5 20.125C14.42 20.125 17.7537 16.9925 19.39 15.12C19.8601 14.5616 20.118 13.855 20.118 13.125C20.118 12.395 19.8601 11.6884 19.39 11.13ZM18.0687 14C16.625 15.645 13.6937 18.375 10.5 18.375C7.30622 18.375 4.37497 15.61 2.93122 14C2.73637 13.7634 2.62982 13.4665 2.62982 13.16C2.62982 12.8535 2.73637 12.5566 2.93122 12.32C4.37497 10.64 7.27122 7.875 10.5 7.875C13.7287 7.875 16.625 10.64 18.0687 12.25C18.2822 12.4915 18.4 12.8027 18.4 13.125C18.4 13.4473 18.2822 13.7585 18.0687 14ZM10.5 9.625C9.80773 9.625 9.13105 9.83027 8.55547 10.2149C7.9799 10.5994 7.5313 11.1461 7.26639 11.7856C7.00148 12.4251 6.93217 13.1289 7.06722 13.8078C7.20227 14.4868 7.53561 15.1104 8.02509 15.5999C8.51458 16.0894 9.13822 16.4227 9.81715 16.5577C10.4961 16.6928 11.1998 16.6235 11.8394 16.3586C12.4789 16.0937 13.0255 15.6451 13.4101 15.0695C13.7947 14.4939 14 13.8172 14 13.125C14 12.1967 13.6312 11.3065 12.9748 10.6501C12.3185 9.99375 11.4282 9.625 10.5 9.625ZM10.5 14.875C10.1539 14.875 9.81551 14.7724 9.52772 14.5801C9.23993 14.3878 9.01563 14.1145 8.88318 13.7947C8.75073 13.4749 8.71607 13.1231 8.78359 12.7836C8.85112 12.4441 9.01779 12.1323 9.26253 11.8876C9.50727 11.6428 9.81909 11.4762 10.1586 11.4086C10.498 11.3411 10.8499 11.3758 11.1697 11.5082C11.4894 11.6407 11.7627 11.865 11.955 12.1528C12.1473 12.4405 12.25 12.7789 12.25 13.125C12.25 13.5891 12.0656 14.0342 11.7374 14.3624C11.4092 14.6906 10.9641 14.875 10.5 14.875ZM9.62497 3.5V1.75C9.62497 1.51794 9.71716 1.29538 9.88125 1.13128C10.0453 0.967187 10.2679 0.875 10.5 0.875C10.732 0.875 10.9546 0.967187 11.1187 1.13128C11.2828 1.29538 11.375 1.51794 11.375 1.75V3.5C11.375 3.73206 11.2828 3.95462 11.1187 4.11872C10.9546 4.28281 10.732 4.375 10.5 4.375C10.2679 4.375 10.0453 4.28281 9.88125 4.11872C9.71716 3.95462 9.62497 3.73206 9.62497 3.5ZM5.33747 2.94875C5.25039 2.73515 5.25118 2.4958 5.33967 2.28278C5.42815 2.06976 5.59718 1.90029 5.80997 1.81125C5.9185 1.75979 6.03646 1.73123 6.15651 1.72734C6.27656 1.72345 6.39612 1.74431 6.50775 1.78864C6.61939 1.83296 6.7207 1.8998 6.80538 1.98498C6.89006 2.07016 6.9563 2.17186 6.99997 2.28375L7.66497 3.9025C7.71943 4.03506 7.7405 4.17897 7.72632 4.32158C7.71214 4.46419 7.66315 4.60113 7.58365 4.72037C7.50416 4.83962 7.39659 4.93751 7.27041 5.00545C7.14422 5.07338 7.00328 5.10929 6.85997 5.11C6.68722 5.10914 6.51859 5.05716 6.37534 4.96062C6.23208 4.86408 6.12061 4.72729 6.05497 4.5675L5.33747 2.94875ZM1.83747 5.69625C1.69412 5.52886 1.61921 5.31355 1.62772 5.09333C1.63623 4.87311 1.72752 4.66422 1.88335 4.50838C2.03918 4.35255 2.24808 4.26126 2.4683 4.25275C2.68851 4.24425 2.90383 4.31915 3.07122 4.4625L4.31372 5.69625C4.39573 5.77759 4.46083 5.87437 4.50525 5.981C4.54967 6.08762 4.57254 6.20199 4.57254 6.3175C4.57254 6.43301 4.54967 6.54738 4.50525 6.65401C4.46083 6.76063 4.39573 6.85741 4.31372 6.93875C4.23196 7.01985 4.13499 7.08401 4.02839 7.12755C3.92178 7.17109 3.80762 7.19317 3.69247 7.1925C3.57731 7.19317 3.46316 7.17109 3.35655 7.12755C3.24994 7.08401 3.15298 7.01985 3.07122 6.93875L1.83747 5.69625ZM13.3787 3.94625L14.0437 2.3275C14.0878 2.22107 14.1524 2.12438 14.2339 2.04299C14.3154 1.9616 14.4122 1.89711 14.5187 1.85321C14.6252 1.80931 14.7393 1.78687 14.8545 1.78718C14.9697 1.78748 15.0837 1.81053 15.19 1.855C15.4028 1.94404 15.5718 2.11351 15.6603 2.32653C15.7488 2.53955 15.7495 2.7789 15.6625 2.9925L14.9887 4.61125C14.9231 4.77104 14.8116 4.90783 14.6683 5.00437C14.5251 5.10091 14.3565 5.15289 14.1837 5.15375C14.0404 5.15304 13.8995 5.11713 13.7733 5.0492C13.6471 4.98126 13.5395 4.88337 13.46 4.76412C13.3805 4.64488 13.3315 4.50794 13.3174 4.36533C13.3032 4.22272 13.3243 4.07881 13.3787 3.94625ZM16.6862 6.9825C16.6042 6.90116 16.5391 6.80438 16.4947 6.69775C16.4503 6.59113 16.4274 6.47676 16.4274 6.36125C16.4274 6.24574 16.4503 6.13137 16.4947 6.02475C16.5391 5.91812 16.6042 5.82134 16.6862 5.74L17.9287 4.4625C18.0072 4.3709 18.1037 4.29651 18.2122 4.24399C18.3208 4.19147 18.439 4.16196 18.5595 4.1573C18.6801 4.15265 18.8002 4.17295 18.9125 4.21694C19.0248 4.26093 19.1268 4.32766 19.212 4.41293C19.2973 4.4982 19.364 4.60018 19.408 4.71247C19.452 4.82475 19.4723 4.94492 19.4677 5.06542C19.463 5.18593 19.4335 5.30417 19.381 5.41272C19.3285 5.52128 19.2541 5.61781 19.1625 5.69625L17.9287 6.93875C17.847 7.01985 17.75 7.08401 17.6434 7.12755C17.5368 7.17109 17.4226 7.19317 17.3075 7.1925C17.1923 7.19317 17.0782 7.17109 16.9715 7.12755C16.8649 7.08401 16.768 7.01985 16.6862 6.93875V6.9825Z" fill="#6295E2"/>
</g>
<defs>
<clipPath id="clip0_9_704">
<rect width="21" height="21" fill="white"/>
</clipPath>
</defs>
</svg>
