<svg width="24" height="24" viewBox="0 0 24 24" fill="none" xmlns="http://www.w3.org/2000/svg">
<g clip-path="url(#clip0_9_818)">
<path d="M23 20.5877V12.4668C23 11.8124 22.8651 11.1648 22.6035 10.5635C22.3419 9.9622 21.9591 9.41968 21.4783 8.96897L13.6842 1.66338C13.2299 1.23747 12.6272 1 12.0006 1C11.374 1 10.7713 1.23747 10.317 1.66338L2.52167 8.96897C2.04091 9.41968 1.65809 9.9622 1.39649 10.5635C1.1349 11.1648 0.999999 11.8124 1 12.4668V20.5877C1 21.2275 1.25754 21.8411 1.71596 22.2935C2.17438 22.7458 2.79614 23 3.44444 23H20.5556C21.2039 23 21.8256 22.7458 22.284 22.2935C22.7425 21.8411 23 21.2275 23 20.5877Z" stroke="#1C1F1E" stroke-width="1.8" stroke-linecap="round" stroke-linejoin="round"/>
<path d="M8.37339 16.6334H9.36662V17.6266C9.36662 18.3299 9.93675 18.9 10.64 18.9H13.36C14.0632 18.9 14.6334 18.3299 14.6334 17.6266V16.6334H15.6266C16.3299 16.6334 16.9 16.0632 16.9 15.36V12.64C16.9 11.9368 16.3299 11.3666 15.6266 11.3666H14.6334V10.3734C14.6334 9.67013 14.0632 9.1 13.36 9.1H10.64C9.93675 9.1 9.36662 9.67013 9.36662 10.3734V11.3666H8.37339C7.67013 11.3666 7.1 11.9368 7.1 12.64V15.36C7.1 16.0632 7.67013 16.6334 8.37339 16.6334Z" stroke="#1C1F1E" stroke-width="1.8"/>
</g>
<defs>
<clipPath id="clip0_9_818">
<rect width="24" height="24" fill="white"/>
</clipPath>
</defs>
</svg>
