<svg width="16" height="16" viewBox="0 0 16 16" fill="none" xmlns="http://www.w3.org/2000/svg">
<path fill-rule="evenodd" clip-rule="evenodd" d="M2.02992 7.7835C2.02992 11.0304 4.38406 13.2427 7.02832 13.7003C7.10025 13.7128 7.16902 13.7393 7.23071 13.7783C7.29239 13.8174 7.34578 13.8682 7.38783 13.9279C7.42987 13.9875 7.45975 14.0549 7.47576 14.1261C7.49177 14.1974 7.49359 14.271 7.48112 14.343C7.46866 14.4149 7.44214 14.4837 7.4031 14.5453C7.36406 14.607 7.31325 14.6604 7.25357 14.7025C7.19389 14.7445 7.12652 14.7744 7.05529 14.7904C6.98407 14.8064 6.91039 14.8082 6.83846 14.7958C3.73339 14.2582 0.918457 11.6406 0.918457 7.7835C0.918457 6.14403 1.66406 4.8555 2.53446 3.8763C3.15846 3.17443 3.87206 2.60376 4.44592 2.1675H2.70086C2.55941 2.1675 2.42375 2.11131 2.32373 2.01129C2.22371 1.91127 2.16752 1.77561 2.16752 1.63416C2.16752 1.49271 2.22371 1.35706 2.32373 1.25704C2.42375 1.15702 2.55941 1.10083 2.70086 1.10083H5.90086C6.04231 1.10083 6.17796 1.15702 6.27798 1.25704C6.378 1.35706 6.43419 1.49271 6.43419 1.63416V4.83416C6.43419 4.97561 6.378 5.11127 6.27798 5.21129C6.17796 5.31131 6.04231 5.3675 5.90086 5.3675C5.75941 5.3675 5.62375 5.31131 5.52373 5.21129C5.42371 5.11127 5.36752 4.97561 5.36752 4.83416V2.8651L5.36646 2.86723C4.75632 3.3259 4.01179 3.88803 3.36646 4.61443C2.60379 5.47203 2.02992 6.50883 2.02992 7.78243V7.7835ZM13.8785 8.21656C13.8785 5.00376 11.5745 2.80536 8.96432 2.3147C8.89158 2.30235 8.82201 2.27565 8.7597 2.23613C8.69738 2.19662 8.64356 2.14509 8.60137 2.08456C8.55917 2.02402 8.52946 1.95569 8.51396 1.88355C8.49846 1.81141 8.49748 1.7369 8.51107 1.66438C8.52467 1.59186 8.55258 1.52277 8.59316 1.46114C8.63374 1.39952 8.68619 1.34659 8.74745 1.30545C8.8087 1.26431 8.87754 1.23578 8.94994 1.22153C9.02233 1.20727 9.09685 1.20758 9.16912 1.22243C12.2347 1.79843 14.9899 4.4011 14.9899 8.21656C14.9899 9.85603 14.2443 11.1435 13.3739 12.1238C12.7499 12.8256 12.0363 13.3963 11.4625 13.8326H13.2075C13.349 13.8326 13.4846 13.8888 13.5846 13.9888C13.6847 14.0888 13.7409 14.2244 13.7409 14.3659C13.7409 14.5073 13.6847 14.643 13.5846 14.743C13.4846 14.843 13.349 14.8992 13.2075 14.8992H10.0075C9.86608 14.8992 9.73042 14.843 9.6304 14.743C9.53038 14.643 9.47419 14.5073 9.47419 14.3659V11.1659C9.47419 11.0244 9.53038 10.8888 9.6304 10.7888C9.73042 10.6888 9.86608 10.6326 10.0075 10.6326C10.149 10.6326 10.2846 10.6888 10.3846 10.7888C10.4847 10.8888 10.5409 11.0244 10.5409 11.1659V13.1339H10.543C11.1521 12.6731 11.8977 12.112 12.5419 11.3846C13.3046 10.528 13.8785 9.49123 13.8785 8.21656Z" fill="white"/>
</svg>
