<svg width="14" height="14" viewBox="0 0 14 14" fill="none" xmlns="http://www.w3.org/2000/svg">
<path d="M6.99998 10.6604L4.57915 12.1188C4.4722 12.1868 4.3604 12.216 4.24373 12.2063C4.12706 12.1965 4.02498 12.1577 3.93748 12.0896C3.84998 12.0215 3.78192 11.9366 3.73331 11.8347C3.6847 11.7324 3.67498 11.6181 3.70415 11.4917L4.34581 8.73543L2.20206 6.88335C2.10484 6.79585 2.04417 6.6961 2.02006 6.5841C1.99556 6.47248 2.00276 6.36321 2.04165 6.25626C2.08054 6.14932 2.13887 6.06182 2.21665 5.99376C2.29442 5.92571 2.40137 5.88196 2.53748 5.86251L5.36665 5.6146L6.4604 3.01876C6.50901 2.9021 6.58445 2.8146 6.68673 2.75626C6.78862 2.69793 6.89304 2.66876 6.99998 2.66876C7.10692 2.66876 7.21154 2.69793 7.31381 2.75626C7.4157 2.8146 7.49095 2.9021 7.53956 3.01876L8.63331 5.6146L11.4625 5.86251C11.5986 5.88196 11.7055 5.92571 11.7833 5.99376C11.8611 6.06182 11.9194 6.14932 11.9583 6.25626C11.9972 6.36321 12.0046 6.47248 11.9805 6.5841C11.956 6.6961 11.8951 6.79585 11.7979 6.88335L9.65415 8.73543L10.2958 11.4917C10.325 11.6181 10.3153 11.7324 10.2666 11.8347C10.218 11.9366 10.15 12.0215 10.0625 12.0896C9.97498 12.1577 9.8729 12.1965 9.75623 12.2063C9.63956 12.216 9.52776 12.1868 9.42081 12.1188L6.99998 10.6604Z" fill="#F4A3EC"/>
</svg>
