<svg width="13" height="10" viewBox="0 0 13 10" fill="none" xmlns="http://www.w3.org/2000/svg">
<path d="M11.5554 0.481476C11.395 0.481476 11.2345 0.320983 11.074 0.320983C10.9135 0.320983 10.753 0.320982 10.5925 0.16049C9.95052 -2.45131e-06 9.30855 0 8.50609 0H2.24689C2.0864 0 1.92591 -2.45131e-06 1.76541 0.16049C1.44443 0.320982 1.28394 0.641967 1.28394 0.962951L0 9.30855V9.62954C0.160492 9.14806 0.641969 8.66658 1.12345 8.66658H3.53083C8.18511 8.66658 11.7159 6.74068 12.8394 1.44443C12.8394 1.28394 12.8394 1.12344 12.9999 0.962951C12.6789 0.802459 12.5184 0.641969 12.1974 0.641969C11.7159 0.481476 11.7159 0.481476 11.5554 0.481476Z" fill="#232C65"/>
</svg>
